<svg width="210" height="35" viewBox="0 0 210 35" fill="none" xmlns="http://www.w3.org/2000/svg">
<path d="M0 12.4595V21.5368C0 22.1595 0.510549 22.6642 1.13321 22.6642C12.9638 22.6642 22.6642 12.9638 22.6642 1.13321C22.6642 0.510549 22.1595 0 21.5368 0H12.4595C11.8369 0 11.3321 0.504766 11.3321 1.12743V10.2047C11.3321 10.8273 10.8273 11.3321 10.2047 11.3321H1.12743C0.504767 11.3321 0 11.8369 0 12.4595Z" fill="#39A349"/>
<path d="M34.4497 21.5368V12.4595C34.4497 11.8369 33.9392 11.3321 33.3165 11.3321C21.4859 11.3321 11.7855 21.0325 11.7855 32.8631C11.7855 33.4858 12.2903 33.9963 12.9129 33.9963H21.9902C22.6128 33.9963 23.1176 33.4916 23.1176 32.8689V23.7916C23.1176 23.169 23.6224 22.6642 24.245 22.6642H33.3223C33.9449 22.6642 34.4497 22.1595 34.4497 21.5368Z" fill="#39A349"/>
<path d="M50.0922 20.8567V28.5062H44.7261V8.44995H50.0922V16.2137H52.7562L57.0948 8.44995H63.222L57.285 17.9643L63.6787 28.5062H57.4373L52.9465 20.8567H50.0922Z" fill="#202020"/>
<path d="M73.229 28.8107C69.9815 28.8107 67.4824 27.8973 65.7317 26.0706C63.9811 24.2184 63.1058 21.6559 63.1058 18.383C63.1058 16.8099 63.3341 15.3891 63.7908 14.1205C64.2729 12.8266 64.9325 11.7229 65.7698 10.8095C66.6324 9.89614 67.6853 9.2111 68.9285 8.75441C70.1971 8.27235 71.6306 8.03132 73.229 8.03132C74.8021 8.03132 76.2102 8.27235 77.4534 8.75441C78.722 9.2111 79.7876 9.89614 80.6502 10.8095C81.5383 11.7229 82.2106 12.8266 82.6673 14.1205C83.1494 15.3891 83.3904 16.8099 83.3904 18.383C83.3904 21.6813 82.5024 24.2438 80.7264 26.0706C78.9757 27.8973 76.4766 28.8107 73.229 28.8107ZM73.229 12.8266C71.6053 12.8266 70.3874 13.3594 69.5755 14.425C68.789 15.4906 68.3957 16.8226 68.3957 18.421C68.3957 20.0448 68.789 21.3895 69.5755 22.4551C70.3874 23.5207 71.6053 24.0535 73.229 24.0535C74.8528 24.0535 76.0453 23.5207 76.8064 22.4551C77.593 21.3895 77.9862 20.0448 77.9862 18.421C77.9862 16.8226 77.593 15.4906 76.8064 14.425C76.0453 13.3594 74.8528 12.8266 73.229 12.8266Z" fill="#202020"/>
<path d="M103.51 8.44995V28.5062H98.1436V13.131H92.473C92.4223 14.2727 92.3716 15.4145 92.3208 16.5562C92.2954 17.6979 92.2447 18.8523 92.1686 20.0194C92.1178 20.5522 92.0671 21.1104 92.0164 21.694C91.9656 22.2775 91.8768 22.8737 91.75 23.4827C91.6485 24.0916 91.4835 24.6624 91.2552 25.1952C91.0522 25.728 90.7731 26.2101 90.4179 26.6414C89.7583 27.3772 88.9718 27.872 88.0584 28.1257C87.145 28.3794 86.2062 28.5062 85.2421 28.5062H83.4534V23.7871H83.9862C84.6459 23.7871 85.166 23.6476 85.5466 23.3685C85.9525 23.064 86.2443 22.6708 86.4219 22.1887C86.6249 21.6813 86.7771 21.1358 86.8786 20.5522C86.9801 19.9433 87.0562 19.3217 87.1069 18.6874C87.2338 17.089 87.3099 15.4525 87.3353 13.778C87.386 12.1035 87.4368 10.3275 87.4875 8.44995H103.51Z" fill="#202020"/>
<path d="M117.961 8.44995H124.05L117.619 18.383L124.393 28.5062H118.342L114.193 21.8462L110.197 28.5062H104.184L110.806 18.3068L104.527 8.44995H110.692L114.384 14.9578L117.961 8.44995Z" fill="#202020"/>
<path d="M130.45 20.4381L139.736 8.44995H144.341V28.5062H138.937V16.8987L129.917 28.5062H125.084V8.44995H130.45V20.4381Z" fill="#202020"/>
<path d="M147.05 28.5062V8.44995H152.416V23.8632H160.218V8.44995H165.584V23.8632H168.362V34.0246H162.996V28.5062H147.05Z" fill="#202020"/>
<path d="M174.866 20.4381L184.152 8.44995H188.757V28.5062H183.353V16.8987L174.333 28.5062H169.5V8.44995H174.866V20.4381Z" fill="#202020"/>
<path d="M196.832 16.1756H204.634V8.44995H210V28.5062H204.634V20.8186H196.832V28.5062H191.466V8.44995H196.832V16.1756Z" fill="#202020"/>
</svg>
