<svg width="210" height="35" viewBox="0 0 210 35" fill="none" xmlns="http://www.w3.org/2000/svg">
<path d="M0 12.4595V21.5368C0 22.1595 0.510549 22.6642 1.13321 22.6642C12.9638 22.6642 22.6642 12.9638 22.6642 1.13321C22.6642 0.510549 22.1595 0 21.5368 0H12.4595C11.8369 0 11.3321 0.504766 11.3321 1.12743V10.2047C11.3321 10.8273 10.8273 11.3321 10.2047 11.3321H1.12743C0.504767 11.3321 0 11.8369 0 12.4595Z" fill="#FAFAFA"/>
<path d="M34.4497 21.5366V12.4593C34.4497 11.8366 33.9392 11.3319 33.3165 11.3319C21.4859 11.3319 11.7855 21.0323 11.7855 32.8629C11.7855 33.4855 12.2903 33.9961 12.9129 33.9961H21.9902C22.6128 33.9961 23.1176 33.4913 23.1176 32.8687V23.7914C23.1176 23.1688 23.6224 22.664 24.245 22.664H33.3223C33.9449 22.664 34.4497 22.1592 34.4497 21.5366Z" fill="#FAFAFA"/>
<path d="M50.0922 20.8566V28.5062H44.7261V8.44988H50.0922V16.2136H52.7562L57.0948 8.44988H63.222L57.285 17.9643L63.6787 28.5062H57.4373L52.9465 20.8566H50.0922Z" fill="#FAFAFA"/>
<path d="M73.229 28.8106C69.9815 28.8106 67.4824 27.8973 65.7317 26.0705C63.9811 24.2184 63.1058 21.6558 63.1058 18.3829C63.1058 16.8098 63.3341 15.389 63.7908 14.1204C64.2729 12.8265 64.9325 11.7228 65.7698 10.8094C66.6324 9.89607 67.6853 9.21103 68.9285 8.75434C70.1971 8.27228 71.6306 8.03125 73.229 8.03125C74.8021 8.03125 76.2102 8.27228 77.4534 8.75434C78.722 9.21103 79.7876 9.89607 80.6502 10.8094C81.5383 11.7228 82.2106 12.8265 82.6673 14.1204C83.1494 15.389 83.3904 16.8098 83.3904 18.3829C83.3904 21.6812 82.5024 24.2437 80.7264 26.0705C78.9757 27.8973 76.4766 28.8106 73.229 28.8106ZM73.229 12.8265C71.6053 12.8265 70.3874 13.3593 69.5755 14.4249C68.789 15.4905 68.3957 16.8225 68.3957 18.4209C68.3957 20.0447 68.789 21.3894 69.5755 22.455C70.3874 23.5206 71.6053 24.0534 73.229 24.0534C74.8528 24.0534 76.0453 23.5206 76.8064 22.455C77.593 21.3894 77.9862 20.0447 77.9862 18.4209C77.9862 16.8225 77.593 15.4905 76.8064 14.4249C76.0453 13.3593 74.8528 12.8265 73.229 12.8265Z" fill="#FAFAFA"/>
<path d="M103.51 8.44988V28.5062H98.1436V13.131H92.473C92.4223 14.2727 92.3716 15.4144 92.3208 16.5561C92.2954 17.6979 92.2447 18.8523 92.1686 20.0194C92.1178 20.5522 92.0671 21.1103 92.0164 21.6939C91.9656 22.2774 91.8768 22.8737 91.75 23.4826C91.6485 24.0915 91.4835 24.6624 91.2552 25.1952C91.0522 25.728 90.7731 26.21 90.4179 26.6414C89.7583 27.3771 88.9718 27.8719 88.0584 28.1256C87.145 28.3793 86.2062 28.5062 85.2421 28.5062H83.4534V23.787H83.9862C84.6459 23.787 85.166 23.6475 85.5466 23.3684C85.9525 23.064 86.2443 22.6707 86.4219 22.1886C86.6249 21.6812 86.7771 21.1357 86.8786 20.5522C86.9801 19.9432 87.0562 19.3216 87.1069 18.6873C87.2338 17.0889 87.3099 15.4525 87.3353 13.7779C87.386 12.1034 87.4368 10.3274 87.4875 8.44988H103.51Z" fill="#FAFAFA"/>
<path d="M117.961 8.44988H124.05L117.619 18.3829L124.393 28.5062H118.342L114.193 21.8461L110.197 28.5062H104.184L110.806 18.3068L104.527 8.44988H110.692L114.384 14.9577L117.961 8.44988Z" fill="#FAFAFA"/>
<path d="M130.45 20.438L139.736 8.44988H144.341V28.5062H138.937V16.8986L129.917 28.5062H125.084V8.44988H130.45V20.438Z" fill="#FAFAFA"/>
<path d="M147.05 28.5062V8.44988H152.416V23.8632H160.218V8.44988H165.584V23.8632H168.362V34.0245H162.996V28.5062H147.05Z" fill="#FAFAFA"/>
<path d="M174.866 20.438L184.152 8.44988H188.757V28.5062H183.353V16.8986L174.333 28.5062H169.5V8.44988H174.866V20.438Z" fill="#FAFAFA"/>
<path d="M196.832 16.1756H204.634V8.44988H210V28.5062H204.634V20.8186H196.832V28.5062H191.466V8.44988H196.832V16.1756Z" fill="#FAFAFA"/>
</svg>
